<svg xmlns="http://www.w3.org/2000/svg" xmlns:xlink="http://www.w3.org/1999/xlink" xmlns:s="https://github.com/nturley/netlistsvg" width="1229" height="609">
  <style>svg {
    stroke:#000;
    fill:none;
  }
  text {
    fill:#000;
    stroke:none;
    font-size:10px;
    font-weight: bold;
    font-family: "Courier New", monospace;
  }
  .nodelabel {
    text-anchor: middle;
  }
  .inputPortLabel {
    text-anchor: end;
  }
  .splitjoinBody {
    fill:#000;
  }</style>
  <g s:type="generic" transform="translate(240,22)" s:width="30" s:height="40" id="cell_fa_f:0.fa_i">
    <text x="15" y="-4" class="nodelabel cell_fa_f:0.fa_i" s:attribute="ref">full_adder</text>
    <rect width="30" height="60" s:generic="body" class="cell_fa_f:0.fa_i"/>
    <g transform="translate(0,10)" s:x="0" s:y="10" s:pid="in0" id="port_fa_f:0.fa_i~ci">
      <text x="-3" y="-4" class="inputPortLabel cell_fa_f:0.fa_i">ci</text>
    </g>
    <g transform="translate(0,30)" s:x="0" s:y="10" s:pid="in0" id="port_fa_f:0.fa_i~i0">
      <text x="-3" y="-4" class="inputPortLabel cell_fa_f:0.fa_i">i0</text>
    </g>
    <g transform="translate(0,50)" s:x="0" s:y="10" s:pid="in0" id="port_fa_f:0.fa_i~i1">
      <text x="-3" y="-4" class="inputPortLabel cell_fa_f:0.fa_i">i1</text>
    </g>
    <g transform="translate(30,10)" s:x="30" s:y="10" s:pid="out0" id="port_fa_f:0.fa_i~co">
      <text x="5" y="-4" style="fill:#000; stroke:none" class="cell_fa_f:0.fa_i">co</text>
    </g>
    <g transform="translate(30,30)" s:x="30" s:y="10" s:pid="out0" id="port_fa_f:0.fa_i~s">
      <text x="5" y="-4" style="fill:#000; stroke:none" class="cell_fa_f:0.fa_i">s</text>
    </g>
  </g>
  <g s:type="generic" transform="translate(354,73.5)" s:width="30" s:height="40" id="cell_fa_f:1.fa_i">
    <text x="15" y="-4" class="nodelabel cell_fa_f:1.fa_i" s:attribute="ref">full_adder</text>
    <rect width="30" height="60" s:generic="body" class="cell_fa_f:1.fa_i"/>
    <g transform="translate(0,10)" s:x="0" s:y="10" s:pid="in0" id="port_fa_f:1.fa_i~ci">
      <text x="-3" y="-4" class="inputPortLabel cell_fa_f:1.fa_i">ci</text>
    </g>
    <g transform="translate(0,30)" s:x="0" s:y="10" s:pid="in0" id="port_fa_f:1.fa_i~i0">
      <text x="-3" y="-4" class="inputPortLabel cell_fa_f:1.fa_i">i0</text>
    </g>
    <g transform="translate(0,50)" s:x="0" s:y="10" s:pid="in0" id="port_fa_f:1.fa_i~i1">
      <text x="-3" y="-4" class="inputPortLabel cell_fa_f:1.fa_i">i1</text>
    </g>
    <g transform="translate(30,10)" s:x="30" s:y="10" s:pid="out0" id="port_fa_f:1.fa_i~co">
      <text x="5" y="-4" style="fill:#000; stroke:none" class="cell_fa_f:1.fa_i">co</text>
    </g>
    <g transform="translate(30,30)" s:x="30" s:y="10" s:pid="out0" id="port_fa_f:1.fa_i~s">
      <text x="5" y="-4" style="fill:#000; stroke:none" class="cell_fa_f:1.fa_i">s</text>
    </g>
  </g>
  <g s:type="generic" transform="translate(468,276.5)" s:width="30" s:height="40" id="cell_fa_f:2.fa_i">
    <text x="15" y="-4" class="nodelabel cell_fa_f:2.fa_i" s:attribute="ref">full_adder</text>
    <rect width="30" height="60" s:generic="body" class="cell_fa_f:2.fa_i"/>
    <g transform="translate(0,10)" s:x="0" s:y="10" s:pid="in0" id="port_fa_f:2.fa_i~ci">
      <text x="-3" y="-4" class="inputPortLabel cell_fa_f:2.fa_i">ci</text>
    </g>
    <g transform="translate(0,30)" s:x="0" s:y="10" s:pid="in0" id="port_fa_f:2.fa_i~i0">
      <text x="-3" y="-4" class="inputPortLabel cell_fa_f:2.fa_i">i0</text>
    </g>
    <g transform="translate(0,50)" s:x="0" s:y="10" s:pid="in0" id="port_fa_f:2.fa_i~i1">
      <text x="-3" y="-4" class="inputPortLabel cell_fa_f:2.fa_i">i1</text>
    </g>
    <g transform="translate(30,10)" s:x="30" s:y="10" s:pid="out0" id="port_fa_f:2.fa_i~co">
      <text x="5" y="-4" style="fill:#000; stroke:none" class="cell_fa_f:2.fa_i">co</text>
    </g>
    <g transform="translate(30,30)" s:x="30" s:y="10" s:pid="out0" id="port_fa_f:2.fa_i~s">
      <text x="5" y="-4" style="fill:#000; stroke:none" class="cell_fa_f:2.fa_i">s</text>
    </g>
  </g>
  <g s:type="generic" transform="translate(582,328)" s:width="30" s:height="40" id="cell_fa_f:3.fa_i">
    <text x="15" y="-4" class="nodelabel cell_fa_f:3.fa_i" s:attribute="ref">full_adder</text>
    <rect width="30" height="60" s:generic="body" class="cell_fa_f:3.fa_i"/>
    <g transform="translate(0,10)" s:x="0" s:y="10" s:pid="in0" id="port_fa_f:3.fa_i~ci">
      <text x="-3" y="-4" class="inputPortLabel cell_fa_f:3.fa_i">ci</text>
    </g>
    <g transform="translate(0,30)" s:x="0" s:y="10" s:pid="in0" id="port_fa_f:3.fa_i~i0">
      <text x="-3" y="-4" class="inputPortLabel cell_fa_f:3.fa_i">i0</text>
    </g>
    <g transform="translate(0,50)" s:x="0" s:y="10" s:pid="in0" id="port_fa_f:3.fa_i~i1">
      <text x="-3" y="-4" class="inputPortLabel cell_fa_f:3.fa_i">i1</text>
    </g>
    <g transform="translate(30,10)" s:x="30" s:y="10" s:pid="out0" id="port_fa_f:3.fa_i~co">
      <text x="5" y="-4" style="fill:#000; stroke:none" class="cell_fa_f:3.fa_i">co</text>
    </g>
    <g transform="translate(30,30)" s:x="30" s:y="10" s:pid="out0" id="port_fa_f:3.fa_i~s">
      <text x="5" y="-4" style="fill:#000; stroke:none" class="cell_fa_f:3.fa_i">s</text>
    </g>
  </g>
  <g s:type="generic" transform="translate(696,379.5)" s:width="30" s:height="40" id="cell_fa_f:4.fa_i">
    <text x="15" y="-4" class="nodelabel cell_fa_f:4.fa_i" s:attribute="ref">full_adder</text>
    <rect width="30" height="60" s:generic="body" class="cell_fa_f:4.fa_i"/>
    <g transform="translate(0,10)" s:x="0" s:y="10" s:pid="in0" id="port_fa_f:4.fa_i~ci">
      <text x="-3" y="-4" class="inputPortLabel cell_fa_f:4.fa_i">ci</text>
    </g>
    <g transform="translate(0,30)" s:x="0" s:y="10" s:pid="in0" id="port_fa_f:4.fa_i~i0">
      <text x="-3" y="-4" class="inputPortLabel cell_fa_f:4.fa_i">i0</text>
    </g>
    <g transform="translate(0,50)" s:x="0" s:y="10" s:pid="in0" id="port_fa_f:4.fa_i~i1">
      <text x="-3" y="-4" class="inputPortLabel cell_fa_f:4.fa_i">i1</text>
    </g>
    <g transform="translate(30,10)" s:x="30" s:y="10" s:pid="out0" id="port_fa_f:4.fa_i~co">
      <text x="5" y="-4" style="fill:#000; stroke:none" class="cell_fa_f:4.fa_i">co</text>
    </g>
    <g transform="translate(30,30)" s:x="30" s:y="10" s:pid="out0" id="port_fa_f:4.fa_i~s">
      <text x="5" y="-4" style="fill:#000; stroke:none" class="cell_fa_f:4.fa_i">s</text>
    </g>
  </g>
  <g s:type="generic" transform="translate(810,431)" s:width="30" s:height="40" id="cell_fa_f:5.fa_i">
    <text x="15" y="-4" class="nodelabel cell_fa_f:5.fa_i" s:attribute="ref">full_adder</text>
    <rect width="30" height="60" s:generic="body" class="cell_fa_f:5.fa_i"/>
    <g transform="translate(0,10)" s:x="0" s:y="10" s:pid="in0" id="port_fa_f:5.fa_i~ci">
      <text x="-3" y="-4" class="inputPortLabel cell_fa_f:5.fa_i">ci</text>
    </g>
    <g transform="translate(0,30)" s:x="0" s:y="10" s:pid="in0" id="port_fa_f:5.fa_i~i0">
      <text x="-3" y="-4" class="inputPortLabel cell_fa_f:5.fa_i">i0</text>
    </g>
    <g transform="translate(0,50)" s:x="0" s:y="10" s:pid="in0" id="port_fa_f:5.fa_i~i1">
      <text x="-3" y="-4" class="inputPortLabel cell_fa_f:5.fa_i">i1</text>
    </g>
    <g transform="translate(30,10)" s:x="30" s:y="10" s:pid="out0" id="port_fa_f:5.fa_i~co">
      <text x="5" y="-4" style="fill:#000; stroke:none" class="cell_fa_f:5.fa_i">co</text>
    </g>
    <g transform="translate(30,30)" s:x="30" s:y="10" s:pid="out0" id="port_fa_f:5.fa_i~s">
      <text x="5" y="-4" style="fill:#000; stroke:none" class="cell_fa_f:5.fa_i">s</text>
    </g>
  </g>
  <g s:type="generic" transform="translate(924,482.5)" s:width="30" s:height="40" id="cell_fa_f:6.fa_i">
    <text x="15" y="-4" class="nodelabel cell_fa_f:6.fa_i" s:attribute="ref">full_adder</text>
    <rect width="30" height="60" s:generic="body" class="cell_fa_f:6.fa_i"/>
    <g transform="translate(0,10)" s:x="0" s:y="10" s:pid="in0" id="port_fa_f:6.fa_i~ci">
      <text x="-3" y="-4" class="inputPortLabel cell_fa_f:6.fa_i">ci</text>
    </g>
    <g transform="translate(0,30)" s:x="0" s:y="10" s:pid="in0" id="port_fa_f:6.fa_i~i0">
      <text x="-3" y="-4" class="inputPortLabel cell_fa_f:6.fa_i">i0</text>
    </g>
    <g transform="translate(0,50)" s:x="0" s:y="10" s:pid="in0" id="port_fa_f:6.fa_i~i1">
      <text x="-3" y="-4" class="inputPortLabel cell_fa_f:6.fa_i">i1</text>
    </g>
    <g transform="translate(30,10)" s:x="30" s:y="10" s:pid="out0" id="port_fa_f:6.fa_i~co">
      <text x="5" y="-4" style="fill:#000; stroke:none" class="cell_fa_f:6.fa_i">co</text>
    </g>
    <g transform="translate(30,30)" s:x="30" s:y="10" s:pid="out0" id="port_fa_f:6.fa_i~s">
      <text x="5" y="-4" style="fill:#000; stroke:none" class="cell_fa_f:6.fa_i">s</text>
    </g>
  </g>
  <g s:type="generic" transform="translate(1038,534)" s:width="30" s:height="40" id="cell_fa_f:7.fa_i">
    <text x="15" y="-4" class="nodelabel cell_fa_f:7.fa_i" s:attribute="ref">full_adder</text>
    <rect width="30" height="60" s:generic="body" class="cell_fa_f:7.fa_i"/>
    <g transform="translate(0,10)" s:x="0" s:y="10" s:pid="in0" id="port_fa_f:7.fa_i~ci">
      <text x="-3" y="-4" class="inputPortLabel cell_fa_f:7.fa_i">ci</text>
    </g>
    <g transform="translate(0,30)" s:x="0" s:y="10" s:pid="in0" id="port_fa_f:7.fa_i~i0">
      <text x="-3" y="-4" class="inputPortLabel cell_fa_f:7.fa_i">i0</text>
    </g>
    <g transform="translate(0,50)" s:x="0" s:y="10" s:pid="in0" id="port_fa_f:7.fa_i~i1">
      <text x="-3" y="-4" class="inputPortLabel cell_fa_f:7.fa_i">i1</text>
    </g>
    <g transform="translate(30,10)" s:x="30" s:y="10" s:pid="out0" id="port_fa_f:7.fa_i~co">
      <text x="5" y="-4" style="fill:#000; stroke:none" class="cell_fa_f:7.fa_i">co</text>
    </g>
    <g transform="translate(30,30)" s:x="30" s:y="10" s:pid="out0" id="port_fa_f:7.fa_i~s">
      <text x="5" y="-4" style="fill:#000; stroke:none" class="cell_fa_f:7.fa_i">s</text>
    </g>
  </g>
  <g s:type="inputExt" transform="translate(12,84)" s:width="30" s:height="20" id="cell_i0">
    <text x="15" y="-4" class="nodelabel cell_i0" s:attribute="ref">i0</text>
    <s:alias val="$_inputExt_"/>
    <path d="M0,0 L0,20 L15,20 L30,10 L15,0 Z" class="cell_i0"/>
    <g s:x="28" s:y="10" s:pid="Y"/>
  </g>
  <g s:type="inputExt" transform="translate(12,276)" s:width="30" s:height="20" id="cell_i1">
    <text x="15" y="-4" class="nodelabel cell_i1" s:attribute="ref">i1</text>
    <s:alias val="$_inputExt_"/>
    <path d="M0,0 L0,20 L15,20 L30,10 L15,0 Z" class="cell_i1"/>
    <g s:x="28" s:y="10" s:pid="Y"/>
  </g>
  <g s:type="inputExt" transform="translate(77,22.5)" s:width="30" s:height="20" id="cell_ci">
    <text x="15" y="-4" class="nodelabel cell_ci" s:attribute="ref">ci</text>
    <s:alias val="$_inputExt_"/>
    <path d="M0,0 L0,20 L15,20 L30,10 L15,0 Z" class="cell_ci"/>
    <g s:x="28" s:y="10" s:pid="Y"/>
  </g>
  <g s:type="outputExt" transform="translate(1187,298.5)" s:width="30" s:height="20" id="cell_s">
    <text x="15" y="-4" class="nodelabel cell_s" s:attribute="ref">s</text>
    <s:alias val="$_outputExt_"/>
    <path d="M30,0 L30,20 L15,20 L0,10 L15,0 Z" class="cell_s"/>
    <g s:x="0" s:y="10" s:pid="A"/>
  </g>
  <g s:type="outputExt" transform="translate(1187,534.5)" s:width="30" s:height="20" id="cell_co">
    <text x="15" y="-4" class="nodelabel cell_co" s:attribute="ref">co</text>
    <s:alias val="$_outputExt_"/>
    <path d="M30,0 L30,20 L15,20 L0,10 L15,0 Z" class="cell_co"/>
    <g s:x="0" s:y="10" s:pid="A"/>
  </g>
  <g s:type="join" transform="translate(1144,288)" s:width="4" s:height="40" id="cell_$join$,19,20,21,22,23,24,25,26,">
    <rect width="5" height="160" class="splitjoinBody" s:generic="body"/>
    <s:alias val="$_join_"/>
    <g s:x="5" s:y="20" s:pid="out"/>
    <g transform="translate(0,10)" s:x="0" s:y="10" s:pid="in0">
      <text x="-3" y="-4" class="inputPortLabel">0</text>
    </g>
    <g transform="translate(0,30)" s:x="0" s:y="10" s:pid="in0">
      <text x="-3" y="-4" class="inputPortLabel">1</text>
    </g>
    <g transform="translate(0,50)" s:x="0" s:y="10" s:pid="in0">
      <text x="-3" y="-4" class="inputPortLabel">2</text>
    </g>
    <g transform="translate(0,70)" s:x="0" s:y="10" s:pid="in0">
      <text x="-3" y="-4" class="inputPortLabel">3</text>
    </g>
    <g transform="translate(0,90)" s:x="0" s:y="10" s:pid="in0">
      <text x="-3" y="-4" class="inputPortLabel">4</text>
    </g>
    <g transform="translate(0,110)" s:x="0" s:y="10" s:pid="in0">
      <text x="-3" y="-4" class="inputPortLabel">5</text>
    </g>
    <g transform="translate(0,130)" s:x="0" s:y="10" s:pid="in0">
      <text x="-3" y="-4" class="inputPortLabel">6</text>
    </g>
    <g transform="translate(0,150)" s:x="0" s:y="10" s:pid="in0">
      <text x="-3" y="-4" class="inputPortLabel">7</text>
    </g>
  </g>
  <g s:type="split" transform="translate(93.42857142857143,73.5)" s:width="5" s:height="40" id="cell_$split$,2,3,4,5,6,7,8,9,">
    <rect width="5" height="160" class="splitjoinBody" s:generic="body"/>
    <s:alias val="$_split_"/>
    <g s:x="0" s:y="20" s:pid="in"/>
    <g transform="translate(4,10)" s:x="4" s:y="10" s:pid="out0">
      <text x="5" y="-4">0</text>
    </g>
    <g transform="translate(4,30)" s:x="4" s:y="10" s:pid="out0">
      <text x="5" y="-4">1</text>
    </g>
    <g transform="translate(4,50)" s:x="4" s:y="10" s:pid="out0">
      <text x="5" y="-4">2</text>
    </g>
    <g transform="translate(4,70)" s:x="4" s:y="10" s:pid="out0">
      <text x="5" y="-4">3</text>
    </g>
    <g transform="translate(4,90)" s:x="4" s:y="10" s:pid="out0">
      <text x="5" y="-4">4</text>
    </g>
    <g transform="translate(4,110)" s:x="4" s:y="10" s:pid="out0">
      <text x="5" y="-4">5</text>
    </g>
    <g transform="translate(4,130)" s:x="4" s:y="10" s:pid="out0">
      <text x="5" y="-4">6</text>
    </g>
    <g transform="translate(4,150)" s:x="4" s:y="10" s:pid="out0">
      <text x="5" y="-4">7</text>
    </g>
  </g>
  <g s:type="split" transform="translate(93.42857142857143,265.5)" s:width="5" s:height="40" id="cell_$split$,10,11,12,13,14,15,16,17,">
    <rect width="5" height="160" class="splitjoinBody" s:generic="body"/>
    <s:alias val="$_split_"/>
    <g s:x="0" s:y="20" s:pid="in"/>
    <g transform="translate(4,10)" s:x="4" s:y="10" s:pid="out0">
      <text x="5" y="-4">0</text>
    </g>
    <g transform="translate(4,30)" s:x="4" s:y="10" s:pid="out0">
      <text x="5" y="-4">1</text>
    </g>
    <g transform="translate(4,50)" s:x="4" s:y="10" s:pid="out0">
      <text x="5" y="-4">2</text>
    </g>
    <g transform="translate(4,70)" s:x="4" s:y="10" s:pid="out0">
      <text x="5" y="-4">3</text>
    </g>
    <g transform="translate(4,90)" s:x="4" s:y="10" s:pid="out0">
      <text x="5" y="-4">4</text>
    </g>
    <g transform="translate(4,110)" s:x="4" s:y="10" s:pid="out0">
      <text x="5" y="-4">5</text>
    </g>
    <g transform="translate(4,130)" s:x="4" s:y="10" s:pid="out0">
      <text x="5" y="-4">6</text>
    </g>
    <g transform="translate(4,150)" s:x="4" s:y="10" s:pid="out0">
      <text x="5" y="-4">7</text>
    </g>
  </g>
  <line x1="105" x2="240" y1="32.5" y2="32.5" class="net_18"/>
  <line x1="97.92857142857143" x2="97.92857142857143" y1="83.5" y2="52.5" class="net_2"/>
  <line x1="97.92857142857143" x2="240" y1="52.5" y2="52.5" class="net_2"/>
  <line x1="97.92857142857143" x2="97.92857142857143" y1="275.5" y2="253.5" class="net_10"/>
  <line x1="97.92857142857143" x2="207" y1="253.5" y2="253.5" class="net_10"/>
  <line x1="207" x2="207" y1="253.5" y2="72.5" class="net_10"/>
  <line x1="207" x2="240" y1="72.5" y2="72.5" class="net_10"/>
  <line x1="271" x2="316" y1="32.5" y2="32.5" class="net_28"/>
  <line x1="316" x2="316" y1="32.5" y2="84" class="net_28"/>
  <line x1="316" x2="354" y1="84" y2="84" class="net_28"/>
  <line x1="98.42857142857143" x2="354" y1="104" y2="104" class="net_3"/>
  <line x1="98.42857142857143" x2="316" y1="296" y2="296" class="net_11"/>
  <line x1="316" x2="316" y1="296" y2="124" class="net_11"/>
  <line x1="316" x2="354" y1="124" y2="124" class="net_11"/>
  <line x1="385" x2="430" y1="84" y2="84" class="net_29"/>
  <line x1="430" x2="430" y1="84" y2="287" class="net_29"/>
  <line x1="430" x2="468" y1="287" y2="287" class="net_29"/>
  <line x1="98.42857142857143" x2="217" y1="124" y2="124" class="net_4"/>
  <line x1="217" x2="217" y1="124" y2="307" class="net_4"/>
  <line x1="217" x2="468" y1="307" y2="307" class="net_4"/>
  <line x1="98.42857142857143" x2="207" y1="316" y2="316" class="net_12"/>
  <line x1="207" x2="207" y1="316" y2="318" class="net_12"/>
  <line x1="207" x2="430" y1="318" y2="318" class="net_12"/>
  <line x1="430" x2="430" y1="318" y2="327" class="net_12"/>
  <line x1="430" x2="468" y1="327" y2="327" class="net_12"/>
  <line x1="499" x2="544" y1="287" y2="287" class="net_30"/>
  <line x1="544" x2="544" y1="287" y2="338.5" class="net_30"/>
  <line x1="544" x2="582" y1="338.5" y2="338.5" class="net_30"/>
  <line x1="98.42857142857143" x2="197" y1="144" y2="144" class="net_5"/>
  <line x1="197" x2="197" y1="144" y2="358.5" class="net_5"/>
  <line x1="197" x2="582" y1="358.5" y2="358.5" class="net_5"/>
  <line x1="98.42857142857143" x2="177" y1="336" y2="336" class="net_13"/>
  <line x1="177" x2="177" y1="336" y2="369.5" class="net_13"/>
  <line x1="177" x2="544" y1="369.5" y2="369.5" class="net_13"/>
  <line x1="544" x2="544" y1="369.5" y2="378.5" class="net_13"/>
  <line x1="544" x2="582" y1="378.5" y2="378.5" class="net_13"/>
  <line x1="613" x2="658" y1="338.5" y2="338.5" class="net_31"/>
  <line x1="658" x2="658" y1="338.5" y2="390" class="net_31"/>
  <line x1="658" x2="696" y1="390" y2="390" class="net_31"/>
  <line x1="98.42857142857143" x2="187" y1="164" y2="164" class="net_6"/>
  <line x1="187" x2="187" y1="164" y2="410" class="net_6"/>
  <line x1="187" x2="696" y1="410" y2="410" class="net_6"/>
  <line x1="98.42857142857143" x2="157" y1="356" y2="356" class="net_14"/>
  <line x1="157" x2="157" y1="356" y2="421" class="net_14"/>
  <line x1="157" x2="658" y1="421" y2="421" class="net_14"/>
  <line x1="658" x2="658" y1="421" y2="430" class="net_14"/>
  <line x1="658" x2="696" y1="430" y2="430" class="net_14"/>
  <line x1="727" x2="772" y1="390" y2="390" class="net_32"/>
  <line x1="772" x2="772" y1="390" y2="441.5" class="net_32"/>
  <line x1="772" x2="810" y1="441.5" y2="441.5" class="net_32"/>
  <line x1="98.42857142857143" x2="167" y1="184" y2="184" class="net_7"/>
  <line x1="167" x2="167" y1="184" y2="461.5" class="net_7"/>
  <line x1="167" x2="810" y1="461.5" y2="461.5" class="net_7"/>
  <line x1="98.42857142857143" x2="137" y1="376" y2="376" class="net_15"/>
  <line x1="137" x2="137" y1="376" y2="472.5" class="net_15"/>
  <line x1="137" x2="772" y1="472.5" y2="472.5" class="net_15"/>
  <line x1="772" x2="772" y1="472.5" y2="481.5" class="net_15"/>
  <line x1="772" x2="810" y1="481.5" y2="481.5" class="net_15"/>
  <line x1="841" x2="886" y1="441.5" y2="441.5" class="net_33"/>
  <line x1="886" x2="886" y1="441.5" y2="493" class="net_33"/>
  <line x1="886" x2="924" y1="493" y2="493" class="net_33"/>
  <line x1="98.42857142857143" x2="147" y1="204" y2="204" class="net_8"/>
  <line x1="147" x2="147" y1="204" y2="513" class="net_8"/>
  <line x1="147" x2="924" y1="513" y2="513" class="net_8"/>
  <line x1="98.42857142857143" x2="127" y1="396" y2="396" class="net_16"/>
  <line x1="127" x2="127" y1="396" y2="524" class="net_16"/>
  <line x1="127" x2="886" y1="524" y2="524" class="net_16"/>
  <line x1="886" x2="886" y1="524" y2="533" class="net_16"/>
  <line x1="886" x2="924" y1="533" y2="533" class="net_16"/>
  <line x1="955" x2="1000" y1="493" y2="493" class="net_34"/>
  <line x1="1000" x2="1000" y1="493" y2="544.5" class="net_34"/>
  <line x1="1000" x2="1038" y1="544.5" y2="544.5" class="net_34"/>
  <line x1="97.92857142857143" x2="97.92857142857143" y1="224.5" y2="243.5" class="net_9"/>
  <line x1="97.92857142857143" x2="117" y1="243.5" y2="243.5" class="net_9"/>
  <line x1="117" x2="117" y1="243.5" y2="564.5" class="net_9"/>
  <line x1="117" x2="1038" y1="564.5" y2="564.5" class="net_9"/>
  <line x1="97.92857142857143" x2="97.92857142857143" y1="416.5" y2="584.5" class="net_17"/>
  <line x1="97.92857142857143" x2="1038" y1="584.5" y2="584.5" class="net_17"/>
  <line x1="1150" x2="1187" y1="308.5" y2="308.5" class="net_19,20,21,22,23,24,25,26"/>
  <line x1="1069" x2="1187" y1="544.5" y2="544.5" class="net_27"/>
  <line x1="271" x2="1144.5" y1="52.5" y2="52.5" class="net_19"/>
  <line x1="1144.5" x2="1144.5" y1="52.5" y2="298" class="net_19"/>
  <line x1="385" x2="1124" y1="104" y2="104" class="net_20"/>
  <line x1="1124" x2="1124" y1="104" y2="318.5" class="net_20"/>
  <line x1="1124" x2="1144" y1="318.5" y2="318.5" class="net_20"/>
  <line x1="499" x2="1114" y1="307" y2="307" class="net_21"/>
  <line x1="1114" x2="1114" y1="307" y2="338.5" class="net_21"/>
  <line x1="1114" x2="1144" y1="338.5" y2="338.5" class="net_21"/>
  <line x1="613" x2="1144" y1="358.5" y2="358.5" class="net_22"/>
  <line x1="727" x2="1114" y1="410" y2="410" class="net_23"/>
  <line x1="1114" x2="1114" y1="410" y2="378.5" class="net_23"/>
  <line x1="1114" x2="1144" y1="378.5" y2="378.5" class="net_23"/>
  <line x1="841" x2="1124" y1="461.5" y2="461.5" class="net_24"/>
  <line x1="1124" x2="1124" y1="461.5" y2="398.5" class="net_24"/>
  <line x1="1124" x2="1144" y1="398.5" y2="398.5" class="net_24"/>
  <line x1="955" x2="1134" y1="513" y2="513" class="net_25"/>
  <line x1="1134" x2="1134" y1="513" y2="418.5" class="net_25"/>
  <line x1="1134" x2="1144" y1="418.5" y2="418.5" class="net_25"/>
  <line x1="1069" x2="1144.5" y1="564.5" y2="564.5" class="net_26"/>
  <line x1="1144.5" x2="1144.5" y1="564.5" y2="439" class="net_26"/>
  <line x1="40" x2="93.42857142857143" y1="94" y2="94" class="net_2,3,4,5,6,7,8,9"/>
  <line x1="40" x2="93.42857142857143" y1="286" y2="286" class="net_10,11,12,13,14,15,16,17"/>
</svg>
